#!OML:ASF H:\Terrain\Patient Classification 1\Terrain2\Thursday\justin.ASF
:FULLY-SPECIFIED
:DEGREES
2546
root 21.4151 17.5706 -0.0990591 394.117 -83.0086 328.301
lowerback 9.2322 -0.0651947 0.785655
upperback 2.76994 -0.0329287 3.5774
thorax -2.29903 -0.074195 3.2721
lowerneck -13.2464 -0.799584 -8.55351
upperneck 37.5161 -1.77836 4.23596
head 15.5234 -1.8672 2.90991
rclavicle -3.77691e-015 3.73715e-014
rhumerus -26.8054 -4.6635 -78.0054
rradius 39.9236
rwrist -15.5347
rhand -21.407 12.6501
rfingers 7.12502
rthumb 4.98136 -17.2713
lclavicle -3.77691e-015 3.73715e-014
lhumerus -31.393 6.91705 83.208
lradius 29.9814
lwrist 3.29197
lhand -19.503 20.4036
lfingers 7.12502
lthumb 6.81962 50.2738
rfemur -18.4546 5.85266 21.3556
rtibia 36.0059
rfoot -12.2887 32.4666
rtoes 27.9057
lfemur -12.1924 -1.44232 -13.8695
ltibia 34.2884
lfoot -19.0875 -7.93856
ltoes 13.4831
2547
root 21.444 17.5772 -0.0577869 393.23 -83.5745 329.446
lowerback 9.37788 -0.0214962 0.412357
upperback 2.78278 -0.00717472 3.33196
thorax -2.36789 -0.057827 3.22542
lowerneck -13.5722 -0.804301 -8.44878
upperneck 37.5884 -1.82063 4.33181
head 15.6401 -1.85569 2.92892
rclavicle -1.10325e-014 2.78299e-014
rhumerus -26.6357 -4.8041 -78.1945
rradius 39.8027
rwrist -15.7578
rhand -21.0433 12.1678
rfingers 7.12502
rthumb 5.3325 -17.7451
lclavicle -1.10325e-014 2.78299e-014
lhumerus -30.8976 7.08651 82.6696
lradius 30.1031
lwrist 3.47743
lhand -19.2491 20.7255
lfingers 7.12502
lthumb 7.06466 50.5876
rfemur -19.195 5.83264 20.8075
rtibia 36.5745
rfoot -11.5373 32.363
rtoes 27.5448
lfemur -12.487 -1.09082 -14.4827
ltibia 34.1825
lfoot -18.883 -7.95916
ltoes 13.4977
2548
root 21.4668 17.6349 -0.0160867 393.689 -84.1075 329.212
lowerback 9.44396 0.099961 0.26399
upperback 2.82579 0.136756 3.0581
thorax -2.36741 0.0159781 3.00746
lowerneck -13.6273 -0.834849 -8.31738
upperneck 37.4146 -1.94622 4.50431
head 15.5759 -1.85607 2.95586
rclavicle 0 4.37326e-014
rhumerus -26.5606 -5.3302 -78.3595
rradius 39.6485
rwrist -15.278
rhand -20.3915 11.6549
rfingers 7.12502
rthumb 5.96189 -18.2413
lclavicle 0 4.37326e-014
lhumerus -30.4027 6.89472 82.1846
lradius 30.3742
lwrist 4.19422
lhand -19.6117 21.1918
lfingers 7.12502
lthumb 6.71469 51.0654
rfemur -19.8462 5.64985 20.4605
rtibia 37.142
rfoot -10.3184 32.3151
rtoes 27.3013
lfemur -12.29 -3.20182 -14.3902
ltibia 34.0826
lfoot -16.8344 -11.0955
ltoes 39.6699
2549
root 21.4932 17.6549 0.0227543 395.026 -84.6788 328.081
lowerback 9.64768 0.0974942 -0.34897
upperback 2.80214 0.0822926 3.20533
thorax -2.50246 -0.00992407 3.51665
lowerneck -13.6276 -0.696928 -8.70241
upperneck 37.2143 -1.59099 4.48436
head 15.4489 -1.75524 3.07008
rclavicle -6.36111e-015 0
rhumerus -26.4254 -4.80554 -78.338
rradius 39.4618
rwrist -14.9535
rhand -20.2778 11.4429
rfingers 7.12502
rthumb 6.07161 -18.4501
lclavicle -6.36111e-015 0
lhumerus -30.2997 7.63476 81.9852
lradius 30.7484
lwrist 4.86212
lhand -20.154 21.3768
lfingers 7.12502
lthumb 6.19115 51.2663
rfemur -20.6466 5.36425 20.1603
rtibia 37.9325
rfoot -8.64653 32.3462
rtoes 28.3179
lfemur -12.2937 -3.63314 -14.6114
ltibia 33.914
lfoot -16.3886 -11.4288
ltoes 43.9469
2550
root 21.5198 17.6642 0.0631707 393.992 -85.501 329.307
lowerback 9.94155 -0.0486803 -1.58669
upperback 2.73587 -0.221814 3.48759
thorax -2.70682 -0.155702 4.55781
lowerneck -13.7684 -0.368097 -9.17364
upperneck 37.1848 -0.78409 4.08642
head 15.399 -1.53704 3.11433
rclavicle 6.36111e-015 5.56597e-015
rhumerus -26.2158 -3.3459 -78.3432
rradius 39.1883
rwrist -14.811
rhand -20.5784 11.6866
rfingers 7.12502
rthumb 5.7814 -18.2145
lclavicle 6.36111e-015 5.56597e-015
lhumerus -30.5076 9.06656 81.7993
lradius 31.1786
lwrist 5.29747
lhand -20.5872 21.3186
lfingers 7.12502
lthumb 5.77286 51.22
rfemur -21.5876 5.08735 19.5151
rtibia 39.0343
rfoot -7.4253 32.0619
rtoes 28.416
lfemur -12.3063 -3.75196 -15.3655
ltibia 33.6888
lfoot -16.5355 -11.002
ltoes 44.7902
2551
root 21.5425 17.6581 0.103369 397.407 -86.2434 326.061
lowerback 10.1408 0.0159729 -2.05725
upperback 2.70671 -0.181888 3.52913
thorax -2.8485 -0.131204 4.86913
lowerneck -13.8229 -0.199678 -9.3005
upperneck 37.125 -0.386395 3.83507
head 15.3487 -1.41971 3.09215
rclavicle 9.93923e-016 -2.46493e-014
rhumerus -26.1799 -2.95886 -78.3981
rradius 38.8924
rwrist -14.4006
rhand -20.8646 12.1534
rfingers 7.12502
rthumb 5.50511 -17.7551
lclavicle 9.93923e-016 -2.46493e-014
lhumerus -30.5647 9.75543 81.4991
lradius 31.5972
lwrist 5.57822
lhand -20.9179 21.0681
lfingers 7.12502
lthumb 5.45361 50.9779
rfemur -22.7059 4.57256 19.353
rtibia 40.504
rfoot -6.84844 31.7774
rtoes 27.4716
lfemur -12.3588 -2.9038 -15.9562
ltibia 33.3052
lfoot -16.9771 -10.0565
ltoes 41.4551
2552
root 21.5742 17.6177 0.144955 406.246 -86.6166 317.44
lowerback 10.3413 0.228617 -1.81985
upperback 2.67031 0.1231 3.47946
thorax -3.02718 0.0231854 4.64538
lowerneck -13.7316 -0.236064 -9.26883
upperneck 36.928 -0.434441 3.80997
head 15.235 -1.4273 3.06277
rclavicle 2.98177e-016 -1.27222e-014
rhumerus -26.2592 -3.41411 -78.4088
rradius 38.6657
rwrist -14.1911
rhand -20.9209 12.3551
rfingers 7.12502
rthumb 5.45072 -17.5548
lclavicle 2.98177e-016 -1.27222e-014
lhumerus -30.3392 9.64811 81.276
lradius 31.8829
lwrist 6.20382
lhand -21.094 20.6657
lfingers 7.12502
lthumb 5.2836 50.5798
rfemur -24.0812 3.6768 19.6839
rtibia 42.2004
rfoot -5.38055 31.8116
rtoes 27.4072
lfemur -12.8118 0.00736608 -16.502
ltibia 32.8104
lfoot -18.3677 -6.75833
ltoes 16.9278
2553
root 21.6068 17.632 0.194155 415.497 -86.8974 308.407
lowerback 10.5432 0.406322 -1.64381
upperback 2.67309 0.373684 3.40886
thorax -3.15786 0.148408 4.43945
lowerneck -13.6984 -0.281063 -9.16955
upperneck 36.6436 -0.518273 3.84015
head 15.0951 -1.42676 3.03824
rclavicle 5.1684e-015 1.70955e-014
rhumerus -26.2106 -3.94142 -78.5042
rradius 38.3679
rwrist -13.8654
rhand -20.9055 12.5411
rfingers 7.12502
rthumb 5.46558 -17.3684
lclavicle 5.1684e-015 1.70955e-014
lhumerus -29.9905 9.46349 81.0214
lradius 32.1343
lwrist 6.90704
lhand -21.3592 20.4867
lfingers 7.12502
lthumb 5.02749 50.4071
rfemur -25.4347 2.80516 19.9002
rtibia 43.8654
rfoot -3.66008 31.5646
rtoes 25.6152
lfemur -12.7989 0.0160323 -16.5575
ltibia 32.2919
lfoot -18.383 -6.27502
ltoes 17.0426
2554
root 21.6325 17.6683 0.233258 430.081 -86.9118 293.923
lowerback 10.7511 0.609987 -1.23412
upperback 2.77289 0.677372 3.31403
thorax -3.19016 0.29358 4.06578
lowerneck -13.8672 -0.327379 -8.99953
upperneck 36.4867 -0.65759 4.00637
head 15.0679 -1.42615 3.055
rclavicle 2.78299e-015 -9.14409e-015
rhumerus -26.0435 -4.50548 -78.7831
rradius 38.0277
rwrist -13.5546
rhand -20.9187 12.9095
rfingers 7.12502
rthumb 5.45286 -17.0004
lclavicle 2.78299e-015 -9.14409e-015
lhumerus -29.5767 9.28044 80.5714
lradius 32.3951
lwrist 7.19333
lhand -21.7353 20.767
lfingers 7.12502
lthumb 4.66437 50.6956
rfemur -26.7003 2.2689 20.4261
rtibia 45.5654
rfoot -2.56614 31.2189
rtoes 22.8862
lfemur -12.5994 0.0918242 -16.2793
ltibia 31.7493
lfoot -18.2251 -5.92297
ltoes 17.2626
2555
root 21.6608 17.7015 0.269807 444.301 -86.707 279.827
lowerback 10.9299 0.873716 -0.824519
upperback 2.86494 1.06179 3.19874
thorax -3.21411 0.479179 3.65878
lowerneck -14.0214 -0.422922 -8.61828
upperneck 36.384 -0.871897 3.9779
head 15.0698 -1.45772 2.94014
rclavicle 1.88845e-015 5.56597e-015
rhumerus -25.9039 -4.88664 -79.0736
rradius 37.753
rwrist -13.3156
rhand -20.9928 12.9215
rfingers 7.12502
rthumb 5.38127 -16.9901
lclavicle 1.88845e-015 5.56597e-015
lhumerus -29.1629 8.98479 80.1363
lradius 32.7197
lwrist 7.57994
lhand -21.806 21.1554
lfingers 7.12502
lthumb 4.59611 51.0855
rfemur -27.9597 1.9337 20.9545
rtibia 47.1453
rfoot -1.35744 30.6877
rtoes 22.7346
lfemur -12.4378 0.0571686 -15.9695
ltibia 31.2192
lfoot -18.0016 -5.51848
ltoes 19.6376
2556
root 21.6898 17.7212 0.312473 454.828 -86.8297 269.567
lowerback 10.9466 1.09659 -1.0238
upperback 2.90373 1.33234 3.13337
thorax -3.20481 0.614032 3.66608
lowerneck -14.0642 -0.506634 -8.42179
upperneck 36.1812 -0.921851 3.6907
head 14.9868 -1.47715 2.77199
rclavicle 3.47873e-015 3.18055e-015
rhumerus -25.8169 -4.92198 -79.1141
rradius 37.5031
rwrist -12.8122
rhand -20.9835 13.0577
rfingers 7.12502
rthumb 5.39033 -16.8538
lclavicle 3.47873e-015 3.18055e-015
lhumerus -28.9018 9.08125 79.9901
lradius 33.1453
lwrist 7.77993
lhand -21.8446 21.4461
lfingers 7.12502
lthumb 4.55885 51.377
rfemur -29.3725 1.46421 20.968
rtibia 48.805
rfoot -1.2442 29.2098
rtoes 19.3703
lfemur -12.5236 0.254122 -16.2506
ltibia 30.7666
lfoot -17.896 -5.17949
ltoes 20.9233
2557
root 21.7099 17.747 0.348965 463.424 -86.9309 261.218
lowerback 10.8819 1.2438 -1.21946
upperback 2.98276 1.50059 3.04733
thorax -3.10159 0.696225 3.66467
lowerneck -14.1753 -0.555824 -8.50794
upperneck 36.0442 -0.940405 3.70111
head 14.9504 -1.48459 2.78726
rclavicle -3.18055e-015 7.95139e-016
rhumerus -25.7243 -4.78113 -79.1712
rradius 37.3166
rwrist -12.7248
rhand -20.9405 13.387
rfingers 7.12502
rthumb 5.43176 -16.5233
lclavicle -3.18055e-015 7.95139e-016
lhumerus -28.6049 9.24279 79.8551
lradius 33.5241
lwrist 7.73897
lhand -22.0772 21.9363
lfingers 7.12502
lthumb 4.33419 51.8719
rfemur -30.6859 0.855836 21.0327
rtibia 50.5148
rfoot -1.69297 26.9835
rtoes 11.6843
lfemur -12.5648 0.594563 -16.5266
ltibia 30.3418
lfoot -17.7773 -5.19859
ltoes 19.9991
2558
root 21.7417 17.7597 0.408505 473.633 -86.772 251.1
lowerback 11.1358 1.40167 -0.818497
upperback 3.09122 1.73914 2.81568
thorax -3.12687 0.809694 3.15872
lowerneck -14.3833 -0.58291 -8.57701
upperneck 35.9436 -1.01988 3.98438
head 14.9572 -1.47832 2.90649
rclavicle -1.41137e-014 -3.29983e-014
rhumerus -25.5421 -5.00981 -79.3313
rradius 37.0874
rwrist -12.4523
rhand -20.7478 13.184
rfingers 7.12502
rthumb 5.61788 -16.7215
lclavicle -1.41137e-014 -3.29983e-014
lhumerus -28.1778 9.12436 79.5869
lradius 33.8128
lwrist 8.19882
lhand -22.4079 22.0923
lfingers 7.12502
lthumb 4.01484 52.0342
rfemur -32.1064 0.205789 21.1387
rtibia 52.3924
rfoot -1.68549 24.6739
rtoes 4.80724
lfemur -12.5281 0.410488 -16.7804
ltibia 30.0195
lfoot -17.6035 -4.51343
ltoes 19.9857
